<?xml version="1.0" encoding="UTF-8"?>
<!DOCTYPE svg PUBLIC "-//W3C//DTD SVG 1.1//EN" "http://www.w3.org/Graphics/SVG/1.1/DTD/svg11.dtd">
<!-- Creator: CorelDRAW -->
<svg xmlns="http://www.w3.org/2000/svg" xml:space="preserve" width="12in" height="6in" style="shape-rendering:geometricPrecision; text-rendering:geometricPrecision; image-rendering:optimizeQuality; fill-rule:evenodd; clip-rule:evenodd"
viewBox="0 0 12 6"
 xmlns:xlink="http://www.w3.org/1999/xlink">
 <defs>
  <style type="text/css">
   <![CDATA[
    .str1 {stroke:#1F1A17;stroke-width:0.003}
    .str0 {stroke:#1F1A17;stroke-width:0.003;stroke-linecap:round;stroke-linejoin:round}
    .fil0 {fill:none;fill-rule:nonzero}
    .fil1 {fill:#0A0B0C;fill-rule:nonzero}
   ]]>
  </style>
 </defs>
 <g id="Layer_x0020_1">
  <metadata id="CorelCorpID_0Corel-Layer"/>
  <g id="_44406880">
   <g>
    <path id="_44417160" class="fil0 str0" d="M1.66143 1.03478c-0.0885827,0 -0.176,0.0242638 -0.252795,0.0701772 -0.0373268,0.022311 -0.0792638,0.0334724 -0.121213,0.0334724 -0.0419488,0 -0.0838898,-0.0111614 -0.121217,-0.0334724 -0.0767953,-0.0459134 -0.164209,-0.0701772 -0.252791,-0.0701772 -0.271362,0 -0.492134,0.220772 -0.492134,0.492118 0,0.110106 0.0378543,0.21863 0.106579,0.305598 0.0329724,0.0417087 0.0509055,0.0933031 0.0509055,0.146469"/>
    <line id="_44416200" class="fil0 str0" x1="0.578764" y1="1.97897" x2="0.578764" y2= "2.84648" />
    <path id="_44414976" class="fil0 str0" d="M0.578764 2.84648c0,0.0531654 -0.0179331,0.10476 -0.0509055,0.146484 -0.0687244,0.0869409 -0.106579,0.195476 -0.106579,0.305583 0,0.271346 0.220772,0.492106 0.492134,0.492106 0.0885945,0 0.175996,-0.024252 0.252791,-0.0701772 0.037315,-0.0222992 0.0792677,-0.0334764 0.121217,-0.0334764 0.0419488,0 0.0839016,0.0111772 0.121213,0.0334764 0.0767953,0.0459252 0.164197,0.0701772 0.252795,0.0701772 0.271362,0 0.492134,-0.22076 0.492134,-0.492106 0,-0.110106 -0.0378583,-0.218642 -0.106583,-0.305583 -0.0329724,-0.0417244 -0.0509016,-0.0933189 -0.0509016,-0.146484"/>
    <path id="_44408464" class="fil0 str0" d="M1.99608 1.97897c0,-0.0531535 0.0179291,-0.10476 0.0509016,-0.146469 0.0687244,-0.0869685 0.106583,-0.195492 0.106583,-0.305598 0,-0.271346 -0.220772,-0.492118 -0.492134,-0.492118"/>
   </g>
   <line id="_44406920" class="fil0 str0" x1="1.99608" y1="2.84648" x2="1.99608" y2= "1.97897" />
  </g>
  <g id="_44379144">
   <path id="_44384408" class="fil0 str0" d="M2.6637 3.78424c0.0885827,0 0.175996,-0.0242795 0.252795,-0.0701772 0.0373228,-0.0223228 0.0792638,-0.0334724 0.121217,-0.0334724 0.0419528,0 0.0838898,0.0111496 0.121217,0.0334724 0.0767953,0.0458976 0.164197,0.0701772 0.252795,0.0701772 0.271346,0 0.492134,-0.220783 0.492134,-0.492134 0,-0.110106 -0.0378701,-0.218614 -0.106583,-0.305583 -0.0329882,-0.0417205 -0.0509173,-0.093315 -0.0509173,-0.146484"/>
   <line id="_44383448" class="fil0 str0" x1="3.74635" y1="2.84004" x2="3.74635" y2= "1.97253" />
   <path id="_44382224" class="fil0 str0" d="M3.74635 1.97253c0,-0.0531693 0.0179291,-0.104764 0.0509173,-0.146484 0.0687126,-0.0869528 0.106583,-0.195476 0.106583,-0.305583 0,-0.27135 -0.220787,-0.492122 -0.492134,-0.492122 -0.0885984,0 -0.176,0.0242677 -0.252795,0.0701811 -0.0373268,0.022311 -0.0792638,0.0334724 -0.121217,0.0334724 -0.0419528,0 -0.0839055,-0.0111614 -0.121217,-0.0334724 -0.0767992,-0.0459134 -0.164201,-0.0701811 -0.252795,-0.0701811 -0.271362,0 -0.492134,0.220772 -0.492134,0.492122 0,0.110106 0.0378583,0.21863 0.106583,0.305583 0.0329724,0.0417205 0.0509016,0.093315 0.0509016,0.146484"/>
   <line id="_44381120" class="fil0 str0" x1="2.32905" y1="1.97253" x2="2.32905" y2= "2.84004" />
   <path id="_44379184" class="fil0 str0" d="M2.32905 2.84004c0,0.0531693 -0.0179291,0.104764 -0.0509016,0.146484 -0.0687244,0.0869685 -0.106583,0.195476 -0.106583,0.305583 0,0.27135 0.220772,0.492134 0.492134,0.492134"/>
  </g>
  <g id="_44369384">
   <polygon id="_44378136" class="fil1" points="3.57479,2.01376 3.57479,2.07041 3.56041,2.07041 3.56041,2.03048 3.49482,2.03048 3.49482,2.01376 "/>
   <path id="_44377120" class="fil1" d="M3.57479 2.07949l0 0.0156811 -0.0591339 0 0 -0.0156811 0.0591339 0zm-0.0804567 0.0156811l0 0 0 -0.0156811 0.0142677 0 0 0.0156811 -0.0142677 0z"/>
   <path id="_44375528" class="fil1" d="M3.51424 2.14178c0,-0.00485827 0.00119685,-0.00887008 0.00358268,-0.0120472 0.00134252,-0.00175984 0.00352362,-0.00363386 0.00656299,-0.00561417l-0.00862598 0 0 -0.0149724 0.0590276 0 0 0.0154606 -0.0320079 0c-0.00364961,0 -0.00666142,0.000492126 -0.00900787,0.00149213 -0.00444882,0.00195276 -0.00667323,0.00552362 -0.00667323,0.0107283 0,0.00423228 0.00151969,0.00711024 0.00455906,0.00861417 0.00166535,0.000826772 0.00405512,0.00124803 0.00716142,0.00124803l0.0359685 0 0 0.0158425 -0.0398228 0c-0.00741732,0 -0.0127205,-0.00195276 -0.0159213,-0.00580709 -0.00320079,-0.00387795 -0.00480315,-0.00887008 -0.00480315,-0.0149449z"/>
   <polygon id="_44374464" class="fil1" points="3.57479,2.17563 3.57479,2.19082 3.55618,2.19082 3.54952,2.19722 3.57479,2.21155 3.57479,2.23037 3.53795,2.20834 3.51593,2.22954 3.51593,2.21032 3.53824,2.19082 3.49509,2.19082 3.49509,2.17563 "/>
   <path id="_44373080" class="fil1" d="M3.52054 2.46412l0.054252 0 0 0.0158425 -0.0786693 0 0 -0.0129134c0.000692913,0 0.00173622,-0.000216535 0.00314961,-0.000594488 0.00234646,-0.000708661 0.00423228,-0.0017126 0.00564173,-0.00303937 0.00206299,-0.00195276 0.00343307,-0.00447638 0.00412205,-0.00757087 0.000437008,-0.00195276 0.000759843,-0.00537008 0.000976378,-0.0102244l0.0105276 0 0 0.0185z"/>
   <path id="_44371512" class="fil1" d="M3.49558 2.51585c0,-0.0100118 0.00352756,-0.0170354 0.0105787,-0.0210787 0.00705118,-0.00404331 0.0170748,-0.00605118 0.0300551,-0.00605118 0.0129803,0 0.0229921,0.00200787 0.0300039,0.00605118 0.00701181,0.00404331 0.0105236,0.0110669 0.0105236,0.0210787 0,0.0100079 -0.00351181,0.0170354 -0.0105236,0.0210748 -0.00701181,0.00404331 -0.0170236,0.00605118 -0.0300039,0.00605118 -0.0129803,0 -0.0230039,-0.00200787 -0.0300551,-0.00605118 -0.00705118,-0.00403937 -0.0105787,-0.0110669 -0.0105787,-0.0210748zm0.0406339 -0.0113425l0 0c-0.00948031,0 -0.0164921,0.00073622 -0.0210512,0.00222835 -0.00455512,0.00148819 -0.00683465,0.00452756 -0.00683465,0.00911417 0,0.00458268 0.00227953,0.00759449 0.00683465,0.0090315 0.00455906,0.00143701 0.0115709,0.00214173 0.0210512,0.00214173 0.00904724,0 0.0159646,-0.000704724 0.020752,-0.00214173 0.0047874,-0.00143701 0.00718898,-0.00444882 0.00718898,-0.0090315 0,-0.00458661 -0.00240157,-0.00762598 -0.00718898,-0.00911417 -0.0047874,-0.00149213 -0.0117047,-0.00222835 -0.020752,-0.00222835z"/>
   <path id="_44370112" class="fil1" d="M3.49558 2.57654c0,-0.0100079 0.00352756,-0.0170354 0.0105787,-0.0210787 0.00705118,-0.00403937 0.0170748,-0.00604724 0.0300551,-0.00604724 0.0129803,0 0.0229921,0.00200787 0.0300039,0.00604724 0.00701181,0.00404331 0.0105236,0.0110709 0.0105236,0.0210787 0,0.0100118 -0.00351181,0.0170354 -0.0105236,0.0210787 -0.00701181,0.00403937 -0.0170236,0.00604724 -0.0300039,0.00604724 -0.0129803,0 -0.0230039,-0.00200787 -0.0300551,-0.00604724 -0.00705118,-0.00404331 -0.0105787,-0.0110669 -0.0105787,-0.0210787zm0.0406339 -0.0113386l0 0c-0.00948031,0 -0.0164921,0.000732283 -0.0210512,0.00222441 -0.00455512,0.00149213 -0.00683465,0.0045315 -0.00683465,0.00911417 0,0.00458268 0.00227953,0.00759449 0.00683465,0.00903543 0.00455906,0.00143701 0.0115709,0.00214173 0.0210512,0.00214173 0.00904724,0 0.0159646,-0.000704724 0.020752,-0.00214173 0.0047874,-0.00144094 0.00718898,-0.00445276 0.00718898,-0.00903543 0,-0.00458268 -0.00240157,-0.00762205 -0.00718898,-0.00911417 -0.0047874,-0.00149213 -0.0117047,-0.00222441 -0.020752,-0.00222441z"/>
  </g>
  <g id="_44353376">
   <polygon id="_44368320" class="fil1" points="2.66773,2.10857 2.66773,2.03528 2.76769,2.03528 2.76769,2.11101 2.74972,2.11101 2.74972,2.05567 2.72402,2.05567 2.72402,2.10423 2.70666,2.10423 2.70666,2.05567 2.68543,2.05567 2.68543,2.10857 "/>
   <path id="_44367496" class="fil1" d="M2.70822 2.12706l0.0455079 0c0.00461024,0 0.00801969,0.00108661 0.0102402,0.00325591 0.00348031,0.00335039 0.00506693,0.00959055 0.00474803,0.0187165l-0.000338583 0.00915748 -0.0144449 0c4.72441e-005,-0.000625984 7.87402e-005,-0.00127559 9.84252e-005,-0.00192913 1.9685e-005,-0.000665354 3.54331e-005,-0.00127559 3.54331e-005,-0.00187008 0,-0.00393307 -0.000374016,-0.00629528 -0.00111811,-0.00705512 -0.000748031,-0.000759843 -0.00263386,-0.00115354 -0.00566535,-0.00115354l-0.039063 0 0 0.0120079 -0.0137638 0 0 -0.0120079 -0.0206181 0 0 -0.019122 0.0206181 0 0 -0.0103071 0.0137638 0 0 0.0103071z"/>
   <path id="_44365824" class="fil1" d="M2.69181 2.20994c0,-0.00405512 0.000846457,-0.00792126 0.00254331,-0.0115827 0.00169685,-0.00366142 0.00469291,-0.00688976 0.00898425,-0.00968504l-0.0352638 0 0 -0.0193425 0.099622 0 0 0.0193425 -0.0400591 0c-0.00633465,0 -0.0112087,0.00130315 -0.014626,0.00393307 -0.00341732,0.00262992 -0.00512992,0.0064685 -0.00512992,0.0115433 0,0.00489764 0.00172441,0.00820472 0.00516142,0.0099685 0.00244094,0.00134252 0.00565748,0.00200787 0.0096378,0.00200787l0.0450157 0 0 0.019748 -0.0434409 0c-0.0066063,0 -0.0113661,-0.000232283 -0.0142835,-0.000677165 -0.00292126,-0.00046063 -0.00576378,-0.00169685 -0.00852362,-0.00371654 -0.00325591,-0.00238976 -0.00567717,-0.00544094 -0.00726378,-0.00914173 -0.00158268,-0.00371654 -0.00237402,-0.00785433 -0.00237402,-0.0123976z"/>
   <path id="_44364344" class="fil1" d="M2.69181 2.28344c0,-0.0108386 0.00341732,-0.0196535 0.010248,-0.026437 0.00683465,-0.00677953 0.0166535,-0.0101693 0.0294606,-0.0101693 0.0136654,0 0.0235315,0.00374016 0.0295945,0.0112677 0.00606299,0.00752756 0.00909449,0.0162087 0.00909449,0.0260433 0,0.0119213 -0.00359449,0.021185 -0.0107835,0.0278071 -0.00452362,0.00425591 -0.00897244,0.00664567 -0.0133622,0.00717323l0 -0.019748c0.00217323,-0.0011378 0.00386614,-0.0024685 0.00508661,-0.00396063 0.00225984,-0.00276772 0.0033937,-0.00634646 0.0033937,-0.0107441 0,-0.00414961 -0.000929134,-0.00770079 -0.00278346,-0.0106575 -0.00298031,-0.00485827 -0.00818504,-0.00743307 -0.0155945,-0.00773228l0 0.0538465c-0.00638189,9.44882e-005 -0.0112756,-0.000110236 -0.0146693,-0.000637795 -0.00579921,-0.000909449 -0.0108937,-0.0028622 -0.0152874,-0.00590157 -0.00497638,-0.00335039 -0.00862598,-0.0076063 -0.0109331,-0.0127598 -0.00231102,-0.00516929 -0.00346457,-0.0109488 -0.00346457,-0.0173898zm0.015937 1.1811e-005l0 0c0,0.00455906 0.00133071,0.00838189 0.00398819,0.0114606 0.00264961,0.00308268 0.00654331,0.0047874 0.0116772,0.00514173l0 -0.0332835c-0.00481496,0.000688976 -0.00862598,0.00241339 -0.0114409,0.0051378 -0.00281496,0.00272835 -0.00422441,0.00658268 -0.00422441,0.0115433z"/>
   <path id="_44363120" class="fil1" d="M2.69201 2.36867c0,-0.00577953 0.00151575,-0.0105 0.00454724,-0.0141102 0.00181102,-0.00222047 0.00517323,-0.00481102 0.0101024,-0.00779528l-0.0128819 0 0 -0.0184488 0.0739173 0 0 0.0194646 -0.0353307 0c-0.00592126,0 -0.010311,0.000748031 -0.0131575,0.00223622 -0.00506693,0.00267323 -0.00759449,0.00788189 -0.00759449,0.0156654 0,0.000598425 1.9685e-005,0.00135827 6.69291e-005,0.00230709 4.72441e-005,0.000948819 0.000133858,0.00203543 0.000271654,0.00325591l-0.0198031 0c-4.72441e-005,-0.000870079 -7.87402e-005,-0.00140945 -0.000102362,-0.00165354 -1.9685e-005,-0.000259843 -3.54331e-005,-0.000570866 -3.54331e-005,-0.00092126z"/>
   <path id="_44361880" class="fil1" d="M2.69201 2.4221c0,-0.0060748 0.00149606,-0.0110945 0.00447638,-0.0150551 0.00167717,-0.00219685 0.00440945,-0.00454331 0.00820866,-0.00702362l-0.0107835 0 0 -0.0187205 0.0737835 0 0 0.0193425 -0.0400118 0c-0.00456299,0 -0.0083189,0.000622047 -0.0112559,0.00187402 -0.00556299,0.0024252 -0.00834252,0.00688976 -0.00834252,0.0133976 0,0.00529134 0.00189764,0.00889764 0.00569685,0.0107717 0.00208268,0.00102756 0.00506693,0.00154331 0.00895276,0.00154331l0.0449606 0 0 0.0198031 -0.0497756 0c-0.00927165,0 -0.0159016,-0.00241339 -0.0199055,-0.00724409 -0.004,-0.00485433 -0.00600394,-0.0110669 -0.00600394,-0.018689z"/>
   <path id="_44358064" class="fil1" d="M2.69181 2.4954c0,-0.0108268 0.00341732,-0.0196417 0.010248,-0.0264252 0.00683465,-0.00677953 0.0166535,-0.0101693 0.0294606,-0.0101693 0.0136654,0 0.0235315,0.00374016 0.0295945,0.0112559 0.00606299,0.00753937 0.00909449,0.0162205 0.00909449,0.0260394 0,0.011937 -0.00359449,0.021189 -0.0107835,0.0278071 -0.00452362,0.00425984 -0.00897244,0.00664567 -0.0133622,0.00718898l0 -0.019748c0.00217323,-0.0011378 0.00386614,-0.0024685 0.00508661,-0.00396063 0.00225984,-0.00276772 0.0033937,-0.00634646 0.0033937,-0.0107441 0,-0.00414961 -0.000929134,-0.00770472 -0.00278346,-0.0106614 -0.00298031,-0.00485433 -0.00818504,-0.00742913 -0.0155945,-0.00772835l0 0.0538465c-0.00638189,7.87402e-005 -0.0112756,-0.000110236 -0.0146693,-0.000649606 -0.00579921,-0.000897638 -0.0108937,-0.00285039 -0.0152874,-0.00588976 -0.00497638,-0.0033622 -0.00862598,-0.00762205 -0.0109331,-0.0127756 -0.00231102,-0.00515354 -0.00346457,-0.0109331 -0.00346457,-0.0173858zm0.015937 2.3622e-005l0 0c0,0.00455906 0.00133071,0.00838189 0.00398819,0.0114488 0.00264961,0.00309055 0.00654331,0.00479921 0.0116772,0.00515354l0 -0.0332835c-0.00481496,0.000677165 -0.00862598,0.00241339 -0.0114409,0.00512598 -0.00281496,0.00274016 -0.00422441,0.00659055 -0.00422441,0.0115551z"/>
   <path id="_44357856" class="fil1" d="M2.70822 2.5432l0.0455079 0c0.00461024,0 0.00801969,0.00108661 0.0102402,0.00325591 0.00348031,0.00333465 0.00506693,0.0095748 0.00474803,0.0187165l-0.000338583 0.00914173 -0.0144449 0c4.72441e-005,-0.000622047 7.87402e-005,-0.00127559 9.84252e-005,-0.0019252 1.9685e-005,-0.000649606 3.54331e-005,-0.00127559 3.54331e-005,-0.00187402 0,-0.00393307 -0.000374016,-0.00626378 -0.00111811,-0.00705118 -0.000748031,-0.000759843 -0.00263386,-0.00114173 -0.00566535,-0.00114173l-0.039063 0 0 0.0119921 -0.0137638 0 0 -0.0119921 -0.0206181 0 0 -0.019122 0.0206181 0 0 -0.0103071 0.0137638 0 0 0.0103071z"/>
  </g>
  <g id="_44308528">
   <path id="_44317376" class="fil1" d="M3.21363 1.60933l0 -0.0344764 0.0799685 0 0 0.0344764c0,0.0120984 -0.00497638,0.0210354 -0.0149173,0.0268268 -0.00737795,0.00427559 -0.0163858,0.00640551 -0.0270197,0.00640551 -0.00418898,0 -0.00861417,-0.000503937 -0.0132362,-0.00151969 -0.00462598,-0.00100394 -0.00894094,-0.00290157 -0.0129134,-0.00569685 -0.00492126,-0.00347244 -0.00829921,-0.00801575 -0.0101457,-0.0136181 -0.00108268,-0.00331102 -0.00166929,-0.00743307 -0.00173622,-0.0123976zm0.0138898 -0.0028189l0 0c0,0.0076063 0.00218504,0.0126929 0.00653543,0.0152441 0.00435433,0.00255118 0.0106102,0.00382283 0.018748,0.00382283 0.00589764,0 0.0109724,-0.000838583 0.0152441,-0.00254724 0.00777165,-0.00312205 0.0116654,-0.00862598 0.0116654,-0.0165197l0 -0.015437 -0.0521929 0 0 0.015437z"/>
   <path id="_44315232" class="fil1" d="M3.23289 1.67737c0,-0.00865354 0.00272835,-0.0157087 0.00820472,-0.0211457 0.00545276,-0.00543701 0.0133228,-0.00814961 0.023563,-0.00814961 0.0109291,0 0.0188228,0.00300787 0.0236654,0.0090315 0.00485827,0.00601969 0.00728346,0.0129646 0.00728346,0.0208307 0,0.00952362 -0.00287402,0.0169567 -0.00862598,0.0222441 -0.00362205,0.00340551 -0.00717323,0.0053189 -0.010689,0.00572441l0 -0.0157874c0.00173622,-0.00092126 0.00309449,-0.00198031 0.00407087,-0.00317323 0.00180315,-0.00219685 0.0027126,-0.0050748 0.0027126,-0.00858661 0,-0.00332283 -0.000744094,-0.00616929 -0.00222441,-0.0085315 -0.00238583,-0.00387795 -0.00655118,-0.00594094 -0.0124764,-0.00618504l0 0.0430787c-0.00511417,8.26772e-005 -0.00901969,-9.44882e-005 -0.0117323,-0.000515748 -0.00464173,-0.000704724 -0.00870866,-0.00227953 -0.0122362,-0.00470472 -0.00398819,-0.00268504 -0.00688976,-0.00609055 -0.00873622,-0.0102126 -0.00185827,-0.00412598 -0.00277953,-0.00876378 -0.00277953,-0.0139173zm0.012752 0l0 0c0,0.00366142 0.00107087,0.0067126 0.00318504,0.0091811 0.00212992,0.00245669 0.00523622,0.00383858 0.00934646,0.00411024l0 -0.0266378c-0.00385039,0.000570866 -0.00690551,0.00193701 -0.00915748,0.00412205 -0.00225197,0.00219685 -0.00337402,0.00526378 -0.00337402,0.00922441z"/>
   <path id="_44313784" class="fil1" d="M3.23316 1.74554c0,-0.00431496 0.000909449,-0.0078937 0.0027126,-0.010689 0.00145276,-0.00237402 0.00353937,-0.0045315 0.00629528,-0.00650787l-0.0284291 0 0 -0.0154646 0.0798583 0 0 0.0152441 -0.00743307 0c0.00288976,0.00209055 0.0049252,0.00401575 0.00607874,0.00577953 0.00195276,0.00298425 0.00292913,0.00694488 0.00292913,0.0118425 0,0.00782677 -0.00302362,0.0139016 -0.00905906,0.0182677 -0.00603543,0.00437008 -0.0136614,0.00653937 -0.0228425,0.00653937 -0.00885433,0 -0.0160984,-0.00220079 -0.0217008,-0.00661811 -0.00560236,-0.00443701 -0.00840945,-0.0105551 -0.00840945,-0.0183937zm0.0492638 -0.0038937l0 0c0,-0.00462205 -0.00166929,-0.00807087 -0.00499213,-0.0103504 -0.00332283,-0.00224803 -0.00752756,-0.00338976 -0.0125866,-0.00338976 -0.00429921,0 -0.00781496,0.000555118 -0.0105236,0.00165354 -0.00510236,0.00211811 -0.00765354,0.00599606 -0.00765354,0.0116378 0,0.00559055 0.0026063,0.00941339 0.00781496,0.0115039 0.00275197,0.00108661 0.00622441,0.00162598 0.0104173,0.00162598 0.00524803,0 0.00948031,-0.00111024 0.0126929,-0.00333465 0.00321654,-0.00222441 0.00483071,-0.00534646 0.00483071,-0.00934646z"/>
   <path id="_44312488" class="fil1" d="M3.23446 1.77974l0.0356457 0c0.00676772,0 0.0118819,0.000854331 0.0153504,0.00255118 0.00629528,0.00303937 0.00944094,0.00889764 0.00944094,0.0176339 0,0.00303543 -0.000393701,0.00566929 -0.00119291,0.00792126 -0.000799213,0.00226378 -0.00227953,0.00459449 -0.00444882,0.00701181 -0.000692913,0.000799213 -0.00147638,0.00147638 -0.00238583,0.00204724 -0.000909449,0.000598425 -0.00145276,0.000948819 -0.00162992,0.00108268l0.00835433 0 0 0.0150315 -0.0591339 0 0 -0.0156811 0.0321732 0c0.00379528,0 0.00684646,-0.000488189 0.00916535,-0.00150394 0.00427559,-0.00194094 0.00640551,-0.00554724 0.00640551,-0.0107992 0,-0.0041063 -0.00150787,-0.00684646 -0.00450394,-0.00825984 -0.00169685,-0.000787402 -0.00423228,-0.00119291 -0.00759449,-0.00119291l-0.0356457 0 0 -0.0158425z"/>
   <path id="_44309256" class="fil1" d="M3.23305 1.86844c0,-0.008 0.003,-0.0142126 0.00898031,-0.0185787 0.00598425,-0.00437008 0.013374,-0.00655118 0.0221614,-0.00655118 0.00911811,0 0.0163465,0.00226378 0.0216772,0.00680709 0.00532677,0.00454331 0.008,0.0106063 0.008,0.0182008 0,0.0049252 -0.00117717,0.00891339 -0.00352362,0.0119921 -0.00126378,0.00169291 -0.00316142,0.00329528 -0.00569685,0.00477559l0.00379528 0c0.00564567,0 0.00965748,-0.000614173 0.0120472,-0.00184646 0.00372835,-0.00188583 0.00558661,-0.00560236 0.00558661,-0.0111772 0,-0.00394488 -0.000704724,-0.00674016 -0.00211811,-0.00840945 -0.000799213,-0.000976378 -0.00210236,-0.0016811 -0.00390551,-0.00211417l0 -0.0168189c0.00590157,0.0005 0.0103228,0.00314567 0.0132953,0.00792126 0.0029685,0.00477165 0.00444882,0.0109449 0.00444882,0.0185 0,0.0125197 -0.00332677,0.0209803 -0.00998425,0.0253898 -0.00386614,0.00256299 -0.00961811,0.00385039 -0.017252,0.00385039l-0.0560984 0 0 -0.0150787 0.00851575 0c-0.00416142,-0.00232283 -0.00701181,-0.00534646 -0.00857087,-0.00910236 -0.000909449,-0.00219685 -0.00135827,-0.0047874 -0.00135827,-0.00775984zm0.0478543 0.0038937l0 0c0,-0.00540945 -0.00249606,-0.00915748 -0.00748819,-0.0112441 -0.00267323,-0.0011378 -0.00573622,-0.00172441 -0.00916929,-0.00172441 -0.00397244,0 -0.00732283,0.000543307 -0.0100354,0.00161417 -0.00509843,0.00206299 -0.00764961,0.00577953 -0.00764961,0.0111929 0,0.00396063 0.00146457,0.00711811 0.0043937,0.00948031 0.00292913,0.00235827 0.00720079,0.00353937 0.0128031,0.00353937 0.0059685,0 0.0103228,-0.00123622 0.0130472,-0.00373228 0.00272835,-0.00248031 0.00409843,-0.0055315 0.00409843,-0.00912598z"/>
  </g>
  <g id="_44306808">
   <polygon id="_44307536" class="fil1" points="3.35824,2.09835 3.47635,2.09835 3.47635,2.07057 3.35824,2.07057 "/>
  </g>
  <g id="_44305088">
   <polygon id="_44305816" class="fil1" points="3.35824,2.5312 3.47635,2.5312 3.47635,2.50343 3.35824,2.50343 "/>
  </g>
  <g id="_44302072">
   <path id="_44303408" class="fil1" d="M3.10639 1.91415l-0.0227323 -0.0393583 0.0162087 0 0 -0.201201 -0.0413819 0.039185c-0.00266929,0.00333858 -0.00454331,0.00768898 -0.00465354,0.0121811 0,0.0181614 0,0.0289291 -1.1811e-005,0.0329016 0.00766535,0.00268898 0.0131969,0.00991732 0.0131969,0.0185039 0,0.0108622 -0.00881496,0.0196811 -0.019689,0.0196811 -0.010874,0 -0.0196811,-0.0088189 -0.0196811,-0.0196811 0,-0.00858661 0.00552756,-0.015815 0.013189,-0.0185039l-1.1811e-005 -0.0325079c0,-0.0088189 0.00483071,-0.0180551 0.0105,-0.0239252 -0.000177165,0.000161417 -0.000354331,0.000322835 1.5748e-005,-1.5748e-005 0.000133858,-0.000122047 0.0438898,-0.0415591 0.0438898,-0.0415591 0.00268504,-0.00332283 0.00452756,-0.00768898 0.0046378,-0.0121654l0 -0.0227598c-0.0150276,-0.00302362 -0.0263661,-0.0163031 -0.0263661,-0.0322283 0,-0.0181575 0.0147283,-0.032878 0.032878,-0.032878 0.0181614,0 0.032878,0.0147205 0.032878,0.032878 0,0.0159252 -0.0113386,0.0292047 -0.0263819,0.0322283l0 0.0223543c0,5.11811e-005 0,0.000122047 0,0.000188976l0 0.0494528c0.000110236,0.00447638 0.00198031,0.00881496 0.00464961,0.0121496 0,0 0.0437559,0.0414252 0.0439094,0.0415591 0.000350394,0.000326772 0.000161417,0.000161417 1.1811e-005,0 0.00565748,0.00587402 0.0104961,0.0151102 0.0104961,0.0239252l-2.3622e-005 0.0313307 0.0132087 0 0 0.0393622 -0.0393622 0 0 -0.0393622 0.0131732 0c0,0 -1.5748e-005,-0.00825984 -1.5748e-005,-0.0317087 -0.000106299,-0.00450394 -0.00198031,-0.00885827 -0.00465354,-0.0121929l-0.0413937 -0.039185 0 0.151992 0.0162362 0 -0.0227205 0.0393583z"/>
   <polygon id="_44302344" class="fil1" points="3.04576,1.86008 3.04576,1.84197 3.02765,1.84197 3.02765,1.82898 3.04576,1.82898 3.04576,1.81086 3.05875,1.81086 3.05875,1.82898 3.07687,1.82898 3.07687,1.84197 3.05875,1.84197 3.05875,1.86008 "/>
  </g>
  <g id="_44296072">
   <path id="_44300624" class="fil1" d="M2.84767 2.87931c0.0110669,0.000814961 0.0196102,0.00482677 0.0256339,0.0120315 0.00602362,0.00720079 0.0090315,0.0164252 0.0090315,0.0276417 0,0.0139291 -0.00428346,0.0243858 -0.0128583,0.0313858 -0.00857087,0.00698425 -0.018311,0.0104843 -0.0292126,0.0104843 -0.0125354,0 -0.0220827,-0.0036378 -0.0286457,-0.0108937 -0.00656693,-0.00725591 -0.00985039,-0.0157717 -0.00985039,-0.0255118 0,-0.00482677 0.000625984,-0.0089252 0.00187402,-0.0122756 0.000759843,-0.00200787 0.00230709,-0.0047874 0.0046378,-0.00836614l-0.0257992 0.00421654 0 0.0481929 -0.0196929 0 0 -0.0649173 0.065185 -0.0082874 0.000976378 0.0207953c-0.00352362,0.00184252 -0.00594094,0.00457087 -0.00724016,0.00819291 -0.000704724,0.00205906 -0.00105906,0.0045 -0.00105906,0.00731102 0,0.00595276 0.0020748,0.0103346 0.00622441,0.0131535 0.00414961,0.00280709 0.00923622,0.00421654 0.0152598,0.00421654 0.00612992,0 0.0112165,-0.00150394 0.0152598,-0.0045 0.00403937,-0.00301181 0.00606299,-0.00737795 0.00606299,-0.0131142 0,-0.00498031 -0.00137008,-0.00877953 -0.00411024,-0.0113701 -0.00274016,-0.00259055 -0.00663386,-0.00435433 -0.0116772,-0.00527559l0 -0.0231102z"/>
   <polygon id="_44299496" class="fil1" points="2.85035,3.02254 2.75928,2.9965 2.75928,2.96972 2.87924,3.01029 2.87924,3.03397 2.75928,3.07487 2.75928,3.04882 "/>
   <path id="_44298200" class="fil1" d="M2.75928 3.13985l0 -0.0517205 0.119957 0 0 0.0517205c0,0.0181339 -0.00746063,0.0315472 -0.0223819,0.0402402 -0.0110669,0.00640551 -0.0245748,0.00960236 -0.0405276,0.00960236 -0.00629134,0 -0.0129094,-0.000759843 -0.0198543,-0.00227559 -0.00694488,-0.00151969 -0.0134016,-0.00437008 -0.0193701,-0.00854724 -0.00737795,-0.00522047 -0.0124488,-0.0120433 -0.0152165,-0.0204528 -0.00162992,-0.00493701 -0.00249606,-0.011122 -0.0026063,-0.0185669zm0.0208346 -0.00424803l0 0c0,0.0114213 0.00326772,0.0190433 0.00980709,0.0228701 0.00653543,0.00382283 0.0159094,0.00574803 0.0281181,0.00574803 0.00884252,0 0.0164646,-0.00127165 0.0228661,-0.00382283 0.0116654,-0.0046811 0.0174961,-0.0129409 0.0174961,-0.0247953l0 -0.0231378 -0.0782874 0 0 0.0231378z"/>
   <path id="_44296800" class="fil1" d="M2.82024 3.20163c0.0193661,0 0.0346142,0.00488189 0.0457323,0.0146496 0.0110709,0.00976378 0.0166024,0.0231929 0.0166024,0.0402559 0,0.0137795 -0.00409449,0.0250906 -0.0122874,0.033937 -0.00819291,0.00881496 -0.0188268,0.0143071 -0.0319016,0.0164646l0 -0.0249016c0.00618504,-0.00165748 0.0108228,-0.00371654 0.0139173,-0.0062126 0.00574803,-0.00451575 0.00862598,-0.0110709 0.00862598,-0.0196693 0,-0.00838189 -0.00335039,-0.0152992 -0.0100512,-0.0207362 -0.00670079,-0.00544094 -0.0167795,-0.00815354 -0.0302323,-0.00815354 -0.0134567,0 -0.0238583,0.00257874 -0.0312087,0.00773228 -0.00735039,0.00515354 -0.0110276,0.0121929 -0.0110276,0.0211299 0,0.00876378 0.00260236,0.0153819 0.00781102,0.0198465 0.00292913,0.00249213 0.00727165,0.00454331 0.0130197,0.00614173l0 0.0250669c-0.00748425,-0.00038189 -0.0149449,-0.00312205 -0.022378,-0.00822047 -0.0132362,-0.00922047 -0.0198583,-0.0238307 -0.0198583,-0.0437953 0,-0.0149213 0.00494094,-0.0272244 0.014811,-0.036878 0.0113425,-0.0111102 0.0274843,-0.0166575 0.0484252,-0.0166575z"/>
  </g>
  <g id="_44287592">
   <path id="_44292864" class="fil1" d="M3.43794 3.0947c0,0.0297323 0.017374,0.0553937 0.0424803,0.0675984l0 -0.0228937c-0.0137953,-0.0101181 -0.0228819,-0.026311 -0.0228819,-0.0447047 0,-0.030626 0.0249291,-0.0555433 0.0555551,-0.0555433 0.030626,0 0.0555551,0.0249173 0.0555551,0.0555433 0,0.0183937 -0.00908661,0.0345866 -0.0228661,0.0446929l0 0.0229055c0.0250945,-0.0122047 0.0424803,-0.0378661 0.0424803,-0.0675984 0,-0.038685 -0.0293898,-0.0706102 -0.0670039,-0.0746929l0 -0.0483268c0.0367047,-0.00407087 0.0653504,-0.0352638 0.0653504,-0.0730394 0,-0.0405394 -0.0329724,-0.0735276 -0.0735157,-0.0735276 -0.0405512,0 -0.0735236,0.0329882 -0.0735236,0.0735276 0,0.0377756 0.0286457,0.0689685 0.0653583,0.0730394l0 0.0483268c-0.0376102,0.00408268 -0.0669882,0.0360079 -0.0669882,0.0746929zm0.0751535 -0.13889l0 0c-0.0315315,0 -0.0571811,-0.0256339 -0.0571811,-0.0571693 0,-0.0315354 0.0256496,-0.0571811 0.0571811,-0.0571811 0.0315236,0 0.057185,0.0256457 0.057185,0.0571811 0,0.0315354 -0.0256614,0.0571693 -0.057185,0.0571693z"/>
   <path id="_44291080" class="fil1" d="M3.43957 3.29077c0,0.0405433 0.0329724,0.0735276 0.0735236,0.0735276 0.0405433,0 0.0735157,-0.0329843 0.0735157,-0.0735276 0,-0.0377874 -0.0286457,-0.0689567 -0.0653504,-0.0730394l0 -0.0915118c0.0140787,-0.00363386 0.0245236,-0.0163031 0.0245236,-0.0315197 0,-0.0180394 -0.0146339,-0.0326614 -0.032689,-0.0326614 -0.0180394,0 -0.0326732,0.014622 -0.0326732,0.0326614 0,0.0152165 0.0104291,0.0278858 0.0245079,0.0315197l0 0.0915118c-0.0367126,0.00408268 -0.0653583,0.035252 -0.0653583,0.0730394zm0.0163425 0l0 0c0,-0.0315197 0.0256496,-0.0571811 0.0571811,-0.0571811 0.0315236,0 0.057185,0.0256614 0.057185,0.0571811 0,0.0315354 -0.0256614,0.057185 -0.057185,0.057185 -0.0315315,0 -0.0571811,-0.0256496 -0.0571811,-0.057185z"/>
   <polygon id="_44290088" class="fil1" points="3.50083,2.94767 3.52535,2.94767 3.52535,2.84963 3.50083,2.84963 "/>
   <polygon id="_44289024" class="fil1" points="3.46407,3.27851 3.50083,3.27851 3.50083,3.24175 3.52535,3.24175 3.52535,3.27851 3.56211,3.27851 3.56211,3.30303 3.52535,3.30303 3.52535,3.33979 3.50083,3.33979 3.50083,3.30303 3.46407,3.30303 "/>
  </g>
  <g id="_44254904">
   <polygon id="_44286560" class="fil0 str0" points="3.29361,1.30394 3.52983,1.30394 3.52983,1.18583 3.29361,1.18583 "/>
   <polygon id="_44285536" class="fil0 str0" points="3.29361,3.50867 3.52983,3.50867 3.52983,3.62678 3.29361,3.62678 "/>
   <polygon id="_44284544" class="fil0 str0" points="3.62235,3.174 3.74635,3.174 3.74635,3.41022 3.62235,3.41022 "/>
   <polygon id="_44283416" class="fil0 str0" points="2.78181,1.30394 2.54559,1.30394 2.54559,1.18583 2.78181,1.18583 "/>
   <polygon id="_44282424" class="fil0 str0" points="2.44716,1.63857 2.32905,1.63857 2.32905,1.40235 2.44716,1.40235 "/>
   <polygon id="_44281400" class="fil0 str0" points="2.78181,3.50867 2.54559,3.50867 2.54559,3.62678 2.78181,3.62678 "/>
   <polygon id="_44280408" class="fil0 str0" points="2.44716,3.174 2.32905,3.174 2.32905,3.41022 2.44716,3.41022 "/>
   <path id="_44279344" class="fil0 str0" d="M2.97865 1.24489c0,0.0326024 0.026437,0.0590512 0.0590591,0.0590512 0.032622,0 0.0590433,-0.0264488 0.0590433,-0.0590512 0,-0.032622 -0.0264213,-0.0590551 -0.0590433,-0.0590551 -0.032622,0 -0.0590591,0.0264331 -0.0590591,0.0590551"/>
   <path id="_44278280" class="fil0 str0" d="M2.97865 3.56772c0,0.0326063 0.026437,0.0590551 0.0590591,0.0590551 0.032622,0 0.0590433,-0.0264488 0.0590433,-0.0590551 0,-0.0326339 -0.0264213,-0.0590551 -0.0590433,-0.0590551 -0.032622,0 -0.0590591,0.0264213 -0.0590591,0.0590551"/>
   <path id="_44277272" class="fil0 str0" d="M2.82674 2.57648c0,0.0326063 0.0264449,0.0590551 0.0590591,0.0590551"/>
   <line id="_44276312" class="fil0 str0" x1="2.8858" y1="2.63554" x2="3.35824" y2= "2.63554" />
   <path id="_44275336" class="fil0 str0" d="M3.35824 2.63554c0.0326181,0 0.0590551,-0.0264488 0.0590551,-0.0590551"/>
   <line id="_44274376" class="fil0 str0" x1="3.4173" y1="2.57648" x2="3.4173" y2= "2.02529" />
   <path id="_44273232" class="fil0 str0" d="M3.4173 2.02529c0,-0.0326024 -0.026437,-0.0590512 -0.0590551,-0.0590512"/>
   <line id="_44272272" class="fil0 str0" x1="3.35824" y1="1.96624" x2="2.8858" y2= "1.96624" />
   <path id="_44271296" class="fil0 str0" d="M2.8858 1.96624c-0.0326142,0 -0.0590591,0.0264488 -0.0590591,0.0590512"/>
   <line id="_44270336" class="fil0 str0" x1="2.82674" y1="2.02529" x2="2.82674" y2= "2.57648" />
   <path id="_44269328" class="fil0 str0" d="M2.9383 3.23251c0,0.0326102 0.0264409,0.0590591 0.0590551,0.0590591"/>
   <line id="_44268368" class="fil0 str0" x1="2.99735" y1="3.29157" x2="3.35169" y2= "3.29157" />
   <path id="_44267392" class="fil0 str0" d="M3.35169 3.29157c0.0326063,0 0.0590551,-0.0264488 0.0590551,-0.0590591"/>
   <line id="_44266432" class="fil0 str0" x1="3.41074" y1="3.23251" x2="3.41074" y2= "2.95691" />
   <path id="_44265448" class="fil0 str0" d="M3.41074 2.95691c0,-0.0326063 -0.0264488,-0.0590551 -0.0590551,-0.0590551"/>
   <line id="_44264488" class="fil0 str0" x1="3.35169" y1="2.89785" x2="2.99735" y2= "2.89785" />
   <path id="_44263376" class="fil0 str0" d="M2.99735 2.89785c-0.0326142,0 -0.0590551,0.0264488 -0.0590551,0.0590551"/>
   <line id="_44262416" class="fil0 str0" x1="2.9383" y1="2.95691" x2="2.9383" y2= "3.23251" />
   <path id="_44261440" class="fil0 str0" d="M3.4314 1.5244c-0.032622,0 -0.0590709,0.0264488 -0.0590709,0.0590551"/>
   <line id="_44260480" class="fil0 str0" x1="3.37233" y1="1.58345" x2="3.37233" y2= "1.89054" />
   <path id="_44259504" class="fil0 str0" d="M3.37233 1.89054c0,0.0326181 0.0264488,0.0590512 0.0590709,0.0590512"/>
   <line id="_44258544" class="fil0 str0" x1="3.4314" y1="1.94959" x2="3.64794" y2= "1.94959" />
   <path id="_44257568" class="fil0 str0" d="M3.64794 1.94959c0.0326024,0 0.0590512,-0.0264331 0.0590512,-0.0590512"/>
   <polyline id="_44255656" class="fil0 str0" points="3.70699,1.89054 3.70699,1.5244 3.74635,1.5244 3.74635,1.40235 3.62233,1.40235 3.62233,1.5244 3.4314,1.5244 "/>
  </g>
  <g id="_44229976">
   <polygon id="_44253872" class="fil0 str0" points="1.03152,3.51507 0.795303,3.51507 0.795303,3.63319 1.03152,3.63319 "/>
   <polygon id="_44252848" class="fil0 str0" points="0.696874,3.18044 0.578764,3.18044 0.578764,3.41666 0.696874,3.41666 "/>
   <polygon id="_44251720" class="fil0 str0" points="1.03152,1.31036 0.795303,1.31036 0.795303,1.19226 1.03152,1.19226 "/>
   <polygon id="_44250728" class="fil0 str0" points="0.696874,1.64501 0.578764,1.64501 0.578764,1.40879 0.696874,1.40879 "/>
   <polygon id="_44249736" class="fil0 str0" points="1.54332,3.51507 1.77954,3.51507 1.77954,3.63319 1.54332,3.63319 "/>
   <polygon id="_44248712" class="fil0 str0" points="1.87797,3.18044 1.99608,3.18044 1.99608,3.41666 1.87797,3.41666 "/>
   <polygon id="_44247720" class="fil0 str0" points="1.54332,1.31036 1.77954,1.31036 1.77954,1.19226 1.54332,1.19226 "/>
   <polygon id="_44246728" class="fil0 str0" points="1.87797,1.64501 1.99608,1.64501 1.99608,1.40879 1.87797,1.40879 "/>
   <path id="_44245664" class="fil0 str0" d="M1.34647 3.57413c0,-0.0326063 -0.0264331,-0.0590551 -0.0590512,-0.0590551 -0.0326181,0 -0.0590551,0.0264488 -0.0590551,0.0590551 0,0.0326063 0.026437,0.0590551 0.0590551,0.0590551 0.0326181,0 0.0590512,-0.0264488 0.0590512,-0.0590551"/>
   <path id="_44244568" class="fil0 str0" d="M1.34647 1.25131c0,-0.0326181 -0.0264331,-0.0590512 -0.0590512,-0.0590512 -0.0326181,0 -0.0590551,0.0264331 -0.0590551,0.0590512 0,0.032622 0.026437,0.0590551 0.0590551,0.0590551 0.0326181,0 0.0590512,-0.0264331 0.0590512,-0.0590551"/>
   <path id="_44243592" class="fil0 str0" d="M1.62475 1.71454c0,-0.032622 -0.0264331,-0.0590551 -0.0590551,-0.0590551"/>
   <line id="_44242632" class="fil0 str0" x1="1.5657" y1="1.65548" x2="1.32948" y2= "1.65548" />
   <path id="_44241520" class="fil0 str0" d="M1.32948 1.65548c-0.032622,0 -0.0590551,0.0264331 -0.0590551,0.0590551"/>
   <line id="_44240528" class="fil0 str0" x1="1.27043" y1="1.71454" x2="1.27043" y2= "2.28539" />
   <path id="_44239552" class="fil0 str0" d="M1.27043 2.28539c0,0.032622 0.0264331,0.0590551 0.0590551,0.0590551"/>
   <line id="_44238592" class="fil0 str0" x1="1.32948" y1="2.34445" x2="1.5657" y2= "2.34445" />
   <path id="_44237616" class="fil0 str0" d="M1.5657 2.34445c0.032622,0 0.0590551,-0.0264331 0.0590551,-0.0590551"/>
   <line id="_44236624" class="fil0 str0" x1="1.62475" y1="2.28539" x2="1.62475" y2= "1.71454" />
   <path id="_44235584" class="fil0 str0" d="M1.67543 2.39505c-0.0241575,0 -0.0458701,0.0146929 -0.0548346,0.037126 -0.027752,0.0694173 -0.0418307,0.143039 -0.0418307,0.218776 0,0.0757638 0.0140787,0.149362 0.0418307,0.21878 0.00896457,0.0224331 0.0306772,0.0371339 0.0548346,0.0371339"/>
   <line id="_44234624" class="fil0 str0" x1="1.67543" y1="2.90687" x2="1.73973" y2= "2.90687" />
   <path id="_44233648" class="fil0 str0" d="M1.73973 2.90687c0.032622,0 0.0590551,-0.0264488 0.0590551,-0.0590551"/>
   <line id="_44232688" class="fil0 str0" x1="1.79878" y1="2.84781" x2="1.79878" y2= "2.45409" />
   <path id="_44231520" class="fil0 str0" d="M1.79878 2.45409c0,-0.0326063 -0.0264331,-0.0590433 -0.0590551,-0.0590433"/>
   <line id="_44230016" class="fil0 str0" x1="1.73973" y1="2.39505" x2="1.67543" y2= "2.39505" />
  </g>
  <g id="_44218824">
   <path id="_44228464" class="fil1" d="M1.85646 2.49913c0,-0.00390551 0.000814961,-0.00746063 0.00244094,-0.0106339 0.00162598,-0.00301181 0.00417717,-0.00550787 0.00764961,-0.00754331 -0.00290157,-0.00116535 -0.00526378,-0.00284646 -0.0071063,-0.00509843 -0.00198031,-0.00279528 -0.00298425,-0.00642913 -0.00298425,-0.0109567 0,-0.00477559 0.00116535,-0.00865748 0.00347244,-0.0116654 0.00129921,-0.00170866 0.00349606,-0.0035 0.00656299,-0.0054252l-0.00862598 0 0 -0.0150276 0.0590276 0 0 0.0156772 -0.0355906 0c-0.00322835,0 -0.00564173,0.000405512 -0.00726772,0.00124803 -0.00285039,0.00151969 -0.0042874,0.00447638 -0.0042874,0.00889764 0,0.00379921 0.00143701,0.00634646 0.0042874,0.00764961 0.00159843,0.000732283 0.00414961,0.00108268 0.00764961,0.00108268l0.0352087 0 0 0.0155709 -0.0352087 0c-0.00263386,0 -0.00490945,0.000409449 -0.00678346,0.00124803 -0.00355512,0.00162992 -0.00531496,0.00458661 -0.00531496,0.00884646 0,0.00368898 0.00138189,0.0062126 0.00412205,0.00759449 0.00143701,0.000732283 0.00328346,0.00108268 0.00553543,0.00108268l0.0376496 0 0 0.0158425 -0.0372717 0.000110236c-0.00382283,0 -0.00675591,-0.000188976 -0.00873622,-0.000543307 -0.00301181,-0.000566929 -0.0055315,-0.00170866 -0.00759449,-0.0033622 -0.00252362,-0.00206299 -0.00431102,-0.00437008 -0.0053189,-0.00688976 -0.001,-0.00252362 -0.00151575,-0.00510236 -0.00151575,-0.00770472z"/>
   <path id="_44227448" class="fil1" d="M1.83644 2.54662l0 -0.0156772 0.0142677 0 0 0.0156772 -0.0142677 0zm0.0804567 -0.0156772l0 0 0 0.0156772 -0.0591378 0 0 -0.0156772 0.0591378 0z"/>
   <path id="_43814568" class="fil1" d="M1.87897 2.6117c-0.00843701,-0.000866142 -0.0142953,-0.00366142 -0.0176339,-0.00838189 -0.00333465,-0.00472047 -0.00499213,-0.0107953 -0.00499213,-0.0182283 0,-0.00873622 0.00282283,-0.0155709 0.00846457,-0.0205354 0.00564173,-0.00493701 0.0135354,-0.00743307 0.0236811,-0.00743307 0.00898031,0 0.0163031,0.00225197 0.0219449,0.00672835 0.00564173,0.00450394 0.00846457,0.0115 0.00846457,0.0210236 0,0.00951969 -0.00338976,0.0167087 -0.0101457,0.0215669 -0.00420472,0.00303543 -0.00865354,0.00474409 -0.0133465,0.00509843l0 -0.0157874c0.00312205,-0.000326772 0.00564173,-0.00124803 0.00759449,-0.00276772 0.00195669,-0.00151969 0.00293307,-0.00409843 0.00293307,-0.00773228 0,-0.00509843 -0.00247244,-0.00859843 -0.00738189,-0.0104449 -0.00262992,-0.001 -0.00611417,-0.00151969 -0.0104409,-0.00151969 -0.00454724,0 -0.00819291,0.000519685 -0.0109331,0.00151969 -0.0051811,0.00192913 -0.00775984,0.00550787 -0.00775984,0.0107165 0,0.00366142 0.00119291,0.00637402 0.00358268,0.00811024 0.00176378,0.00119291 0.00377165,0.00192913 0.0059685,0.00222441l0 0.0158425z"/>
   <path id="_43847568" class="fil1" d="M1.85635 2.65329c0,-0.00464173 0.00122047,-0.00838189 0.0036378,-0.0112874 0.00143701,-0.00175984 0.00414961,-0.00385039 0.00808268,-0.00623622l-0.010311 0 0 -0.0147598 0.0591378 0 0 0.0155709 -0.0282638 0c-0.00474803,0 -0.00824803,0.000598425 -0.0105276,0.00179134 -0.00403937,0.00214173 -0.0060748,0.00632283 -0.0060748,0.0125315 0,0.00046063 2.75591e-005,0.00108661 5.51181e-005,0.00184646 2.3622e-005,0.000759843 0.000106299,0.00162598 0.000216535,0.0026063l-0.0158425 0c-2.75591e-005,-0.000681102 -5.51181e-005,-0.00114173 -8.26772e-005,-0.00133071 -2.75591e-005,-0.000188976 -2.75591e-005,-0.000433071 -2.75591e-005,-0.000732283z"/>
   <path id="_43892480" class="fil1" d="M1.88741 2.7201c-0.00853543,0 -0.0159252,-0.00249606 -0.0221654,-0.00748425 -0.00626378,-0.00499213 -0.00938583,-0.012563 -0.00938583,-0.0227323 0,-0.0101457 0.00312205,-0.0177441 0.00938583,-0.0227323 0.00624016,-0.00499213 0.0136299,-0.00748819 0.0221654,-0.00748819 0.00867717,0 0.0160827,0.00249606 0.0222441,0.00748819 0.00616929,0.00498819 0.00924803,0.0125866 0.00924803,0.0227323 0,0.0101693 -0.00307874,0.0177402 -0.00924803,0.0227323 -0.00616142,0.00498819 -0.0135669,0.00748425 -0.0222441,0.00748425zm0.0185276 -0.0302717l0 0c0,-0.00450394 -0.00160236,-0.00800394 -0.00483071,-0.0104449 -0.00320079,-0.00244094 -0.00777165,-0.00366142 -0.0136969,-0.00366142 -0.00591732,0 -0.0104882,0.00122047 -0.0136732,0.00366142 -0.00320079,0.00244094 -0.00480315,0.00594094 -0.00480315,0.0104449 0,0.00452756 0.00160236,0.008 0.00480315,0.0104173 0.00318504,0.00244094 0.00775591,0.00363386 0.0136732,0.00363386 0.0059252,0 0.0104961,-0.00119291 0.0136969,-0.00363386 0.00322835,-0.00241732 0.00483071,-0.00588976 0.00483071,-0.0104173z"/>
   <path id="_44221360" class="fil1" d="M1.89221 2.7274c0.00832677,0 0.0148661,0.00303543 0.0196142,0.00905906 0.00474409,0.00602362 0.00713386,0.0143228 0.00713386,0.0248504 0,0.0103071 -0.00241732,0.0182835 -0.00724409,0.0239252 -0.00482677,0.00564173 -0.0109055,0.00846063 -0.0182008,0.00846063 -0.00713386,0 -0.012563,-0.00238583 -0.0163307,-0.00713386 -0.00241339,-0.00306299 -0.00436614,-0.00767717 -0.00580709,-0.0138346l-0.00330709 -0.0140236c-0.00127559,-0.0054252 -0.0023622,-0.00898031 -0.00331102,-0.0106339 -0.00140945,-0.0026063 -0.00355118,-0.00390551 -0.00640157,-0.00390551 -0.00311811,0 -0.0055315,0.00133071 -0.00726772,0.00396063 -0.00173622,0.00262992 -0.0026063,0.00615748 -0.0026063,0.0105787 0,0.00396063 0.000677165,0.00727165 0.00200787,0.00995669 0.00203543,0.00398819 0.00545276,0.00612992 0.0102559,0.00642913l0 0.0160591c-0.00849213,-0.000271654 -0.0149764,-0.00344882 -0.0194528,-0.0094685 -0.00447638,-0.00601969 -0.00670079,-0.0132913 -0.00670079,-0.0218386 0,-0.0101969 0.0023622,-0.0179567 0.00711024,-0.0232205 0.00474409,-0.00525984 0.010685,-0.00792126 0.0178465,-0.00792126 0.00784252,0 0.0136181,0.0027126 0.0173071,0.00808661 0.00219685,0.00320079 0.00425984,0.0090315 0.00612992,0.0175512l0.00190157 0.00865354c0.00108268,0.00507087 0.00233071,0.00875984 0.00374409,0.0110945 0.00143701,0.00233071 0.00349606,0.00349606 0.00612992,0.00349606 0.0045315,0 0.00762205,-0.00235827 0.00927559,-0.00712992 0.000870079,-0.00252362 0.00130315,-0.00577953 0.00130315,-0.00982283 0,-0.00670079 -0.00165354,-0.0114449 -0.00493701,-0.0142126 -0.0018189,-0.00151969 -0.0045315,-0.00255118 -0.00819291,-0.00306693l0 -0.0159488z"/>
   <path id="_44219552" class="fil1" d="M1.83693 2.83878l0 -0.0344764 0.0799685 0 0 0.0344764c0,0.0120984 -0.00496457,0.0210512 -0.0149213,0.0268268 -0.00737402,0.0042874 -0.0163819,0.00640157 -0.0270157,0.00640157 -0.00420472,0 -0.00859843,-0.000488189 -0.0132362,-0.00151575 -0.00464173,-0.00100787 -0.0089252,-0.00290551 -0.0129134,-0.00570079 -0.00490945,-0.0034685 -0.00830315,-0.008 -0.0101457,-0.0136142 -0.00108661,-0.00331102 -0.00165354,-0.00743307 -0.00173622,-0.0123976zm0.0138898 -0.00282283l0 0c0,0.00762205 0.00216929,0.0126969 0.00653543,0.015248 0.00437008,0.00254724 0.0106063,0.00382283 0.0187441,0.00382283 0.00588976,0 0.0109882,-0.000838583 0.015248,-0.00255118 0.00778346,-0.00311811 0.0116614,-0.00862598 0.0116614,-0.0165197l0 -0.0154331 -0.052189 0 0 0.0154331z"/>
  </g>
  <g id="_44213864">
   <path id="_44216280" class="fil1" d="M1.77023 2.2165l-0.0277913 -0.0481063 0.019815 0 0 -0.245894 -0.0505748 0.0478661c-0.00328346,0.00408268 -0.00555906,0.00941339 -0.00569685,0.0148819 0,0.0222008 0,0.0353583 -1.5748e-005,0.0402283 0.00937402,0.00327953 0.0161299,0.0121102 0.0161299,0.022622 0,0.0132795 -0.0107717,0.0240472 -0.0240472,0.0240472 -0.0133071,0 -0.0240906,-0.0107677 -0.0240906,-0.0240472 0,-0.0105118 0.00678346,-0.0193425 0.016126,-0.022622l-1.1811e-005 -0.0397441c0,-0.0107795 0.00591339,-0.0220512 0.0128307,-0.0292402 -0.000192913,0.000200787 -0.000409449,0.000405512 1.1811e-005,0 0.000177165,-0.000149606 0.0536693,-0.0508071 0.0536693,-0.0508071 0.00325591,-0.00407087 0.00552362,-0.00940157 0.00566929,-0.0148819l0 -0.0278031c-0.018378,-0.00370472 -0.0322244,-0.019937 -0.0322244,-0.0393898 0,-0.0222008 0.018,-0.040189 0.0401732,-0.040189 0.0221929,0 0.040189,0.0179882 0.040189,0.040189 0,0.0194764 -0.0138465,0.035685 -0.0322402,0.0393898l0 0.0273307c0,6.69291e-005 0,0.000133858 0,0.000216535l0 0.0604528c0.000137795,0.00544882 0.00241339,0.0107677 0.00568504,0.0148346 0,0 0.0534646,0.0506457 0.0536417,0.0507953 0.000448819,0.000393701 0.000216535,0.000192913 1.1811e-005,1.5748e-005 0.00693307,0.00717323 0.0128346,0.0184724 0.0128346,0.0292441l-1.5748e-005 0.0382756 0.0161535 0 0 0.0481339 -0.0481339 0 0 -0.0481339 0.0161102 0c0,0 -2.3622e-005,-0.0100787 -2.3622e-005,-0.038752 -0.000122047,-0.00549213 -0.00240157,-0.0108228 -0.00566929,-0.0148937l-0.0505945 -0.0478898 0 0.185764 0.0198583 0 -0.0277795 0.0481063z"/>
   <polygon id="_44214584" class="fil1" points="1.69611,2.15041 1.69611,2.12828 1.67396,2.12828 1.67396,2.11239 1.69611,2.11239 1.69611,2.09023 1.71199,2.09023 1.71199,2.11239 1.73415,2.11239 1.73415,2.12828 1.71199,2.12828 1.71199,2.15041 "/>
  </g>
  <g id="_42263064">
   <g>
    <line id="_42429008" class="fil0 str0" x1="10.5347" y1="1.026" x2="10.4166" y2= "1.026" />
    <path id="_42427856" class="fil0 str0" d="M10.4166 1.026c-0.0326063,0 -0.0590551,0.026437 -0.0590551,0.0590591"/>
    <polyline id="_42426728" class="fil0 str0" points="10.3576,1.08506 10.3576,1.14411 10.2001,1.14413 "/>
    <path id="_42425752" class="fil0 str0" d="M10.2001 1.14413c-0.0326063,0 -0.0590276,0.0264488 -0.0590276,0.0590551"/>
    <line id="_42424656" class="fil0 str0" x1="10.141" y1="1.20318" x2="10.141" y2= "1.7701" />
    <path id="_42423680" class="fil0 str0" d="M10.141 1.7701c0,0.0326181 0.0264213,0.0590551 0.0590551,0.0590551"/>
    <polyline id="_42422704" class="fil0 str0" points="10.2001,1.82916 10.2592,1.82916 10.2592,2.51419 10.2001,2.51419 "/>
    <path id="_42421720" class="fil0 str0" d="M10.2001 2.51419c-0.0326339,0 -0.0590551,0.0264331 -0.0590551,0.0590551"/>
    <line id="_42420928" class="fil0 str0" x1="10.141" y1="2.57324" x2="10.141" y2= "3.14017" />
    <path id="_42419952" class="fil0 str0" d="M10.141 3.14017c0,0.032622 0.0264213,0.0590551 0.0590551,0.0590551"/>
    <polyline id="_42418976" class="fil0 str0" points="10.2001,3.19923 10.2592,3.19923 10.2592,3.88428 10.2001,3.88428 "/>
    <path id="_42417968" class="fil0 str0" d="M10.2001 3.88428c-0.0326339,0 -0.0590551,0.0264331 -0.0590551,0.0590551"/>
    <line id="_42417176" class="fil0 str0" x1="10.141" y1="3.94333" x2="10.141" y2= "4.51025" />
    <path id="_42416024" class="fil0 str0" d="M10.141 4.51025c0,0.0326063 0.0264213,0.0590551 0.0590551,0.0590551"/>
    <polyline id="_42414760" class="fil0 str0" points="10.2001,4.56931 10.3576,4.56931 10.3576,4.62836 "/>
    <path id="_42413752" class="fil0 str0" d="M10.3576 4.62836c0,0.0326063 0.0264488,0.0590551 0.0590551,0.0590551"/>
    <line id="_42412960" class="fil0 str0" x1="10.4166" y1="4.68742" x2="10.5347" y2= "4.68742" />
    <path id="_42411984" class="fil0 str0" d="M10.5347 4.68742c0.0326339,0 0.0590551,-0.0264488 0.0590551,-0.0590551"/>
    <polyline id="_42410896" class="fil0 str0" points="10.5938,4.62836 10.5938,4.56931 10.7946,4.56931 10.7946,4.37249 10.7217,4.37249 10.7217,4.25438 10.7946,4.25438 10.7946,4.15594 10.9048,4.15594 10.9048,4.25438 10.9777,4.25438 10.9777,4.37249 10.9048,4.37249 10.9048,4.56931 11.1056,4.56931 11.1056,4.62836 "/>
    <path id="_42409920" class="fil0 str0" d="M11.1056 4.62836c0,0.0326063 0.0264488,0.0590551 0.0590551,0.0590551"/>
    <line id="_42409128" class="fil0 str0" x1="11.1646" y1="4.68742" x2="11.2828" y2= "4.68742" />
    <path id="_42407976" class="fil0 str0" d="M11.2828 4.68742c0.0326339,0 0.0590551,-0.0264488 0.0590551,-0.0590551"/>
    <polyline id="_42406848" class="fil0 str0" points="11.3418,4.62836 11.3418,4.56931 11.4993,4.56931 "/>
    <path id="_42405864" class="fil0 str0" d="M11.4993 4.56931c0.0326102,0 0.0590551,-0.0264488 0.0590551,-0.0590551"/>
    <line id="_42404768" class="fil0 str0" x1="11.5584" y1="4.51025" x2="11.5584" y2= "3.94333" />
    <path id="_42403792" class="fil0 str0" d="M11.5584 3.94333c0,-0.032622 -0.0264449,-0.0590551 -0.0590551,-0.0590551"/>
    <polyline id="_42402816" class="fil0 str0" points="11.4993,3.88428 11.4403,3.88428 11.4403,3.19923 11.4993,3.19923 "/>
    <path id="_42401840" class="fil0 str0" d="M11.4993 3.19923c0.0326102,0 0.0590551,-0.0264331 0.0590551,-0.0590551"/>
    <line id="_42401048" class="fil0 str0" x1="11.5584" y1="3.14017" x2="11.5584" y2= "2.57324" />
    <path id="_42400072" class="fil0 str0" d="M11.5584 2.57324c0,-0.032622 -0.0264449,-0.0590551 -0.0590551,-0.0590551"/>
    <polyline id="_42399096" class="fil0 str0" points="11.4993,2.51419 11.4403,2.51419 11.4403,1.82916 11.4993,1.82916 "/>
    <path id="_42398120" class="fil0 str0" d="M11.4993 1.82916c0.0326102,0 0.0590551,-0.026437 0.0590551,-0.0590551"/>
    <line id="_42397296" class="fil0 str0" x1="11.5584" y1="1.7701" x2="11.5584" y2= "1.20318" />
    <path id="_42396144" class="fil0 str0" d="M11.5584 1.20318c0,-0.032622 -0.0264449,-0.0590551 -0.0590551,-0.0590551"/>
    <polyline id="_42394880" class="fil0 str0" points="11.4993,1.14413 11.3418,1.14411 11.3418,1.08506 "/>
    <path id="_42393904" class="fil0 str0" d="M11.3418 1.08506c0,-0.032622 -0.0264213,-0.0590591 -0.0590551,-0.0590591"/>
    <line id="_42393080" class="fil0 str0" x1="11.2828" y1="1.026" x2="11.1646" y2= "1.026" />
    <path id="_42392104" class="fil0 str0" d="M11.1646 1.026c-0.0326063,0 -0.0590551,0.026437 -0.0590551,0.0590591"/>
    <polyline id="_42391016" class="fil0 str0" points="11.1056,1.08506 11.1056,1.14411 10.9048,1.14411 10.9048,1.34094 10.9777,1.34094 10.9777,1.45905 10.9048,1.45905 10.9048,1.5575 10.7946,1.5575 10.7946,1.45905 10.7217,1.45905 10.7217,1.34094 10.7946,1.34094 10.7946,1.14411 10.5938,1.14411 10.5938,1.08506 "/>
    <path id="_42389408" class="fil0 str0" d="M10.5938 1.08506c0,-0.032622 -0.0264213,-0.0590591 -0.0590551,-0.0590591"/>
   </g>
   <line id="_42388416" class="fil0 str0" x1="6.76652" y1="1.03165" x2="6.64841" y2= "1.03165" />
   <path id="_42387264" class="fil0 str0" d="M6.64841 1.03165c-0.032622,0 -0.0590551,0.026437 -0.0590551,0.0590591"/>
   <polyline id="_42386136" class="fil0 str0" points="6.58935,1.09071 6.58935,1.14976 6.43186,1.14978 "/>
   <path id="_42385128" class="fil0 str0" d="M6.43186 1.14978c-0.0326063,0 -0.0590433,0.0264488 -0.0590433,0.0590551"/>
   <line id="_42384032" class="fil0 str0" x1="6.37281" y1="1.20883" x2="6.37281" y2= "1.77576" />
   <path id="_42383056" class="fil0 str0" d="M6.37281 1.77576c0,0.0326181 0.026437,0.0590551 0.0590551,0.0590551"/>
   <polyline id="_42382080" class="fil0 str0" points="6.43187,1.83481 6.49093,1.83481 6.49093,2.51984 6.43187,2.51984 "/>
   <path id="_42381072" class="fil0 str0" d="M6.43187 2.51984c-0.0326181,0 -0.0590551,0.0264331 -0.0590551,0.0590551"/>
   <line id="_42380280" class="fil0 str0" x1="6.37281" y1="2.5789" x2="6.37281" y2= "3.14583" />
   <path id="_42379304" class="fil0 str0" d="M6.37281 3.14583c0,0.032622 0.026437,0.0590551 0.0590551,0.0590551"/>
   <polyline id="_42378328" class="fil0 str0" points="6.43187,3.20488 6.49093,3.20488 6.49093,3.88993 6.43187,3.88993 "/>
   <path id="_42377352" class="fil0 str0" d="M6.43187 3.88993c-0.0326181,0 -0.0590551,0.0264331 -0.0590551,0.0590551"/>
   <line id="_42376560" class="fil0 str0" x1="6.37281" y1="3.94898" x2="6.37281" y2= "4.51591" />
   <path id="_42375408" class="fil0 str0" d="M6.37281 4.51591c0,0.0326063 0.026437,0.0590551 0.0590551,0.0590551"/>
   <polyline id="_42374144" class="fil0 str0" points="6.43187,4.57496 6.58935,4.57496 6.58935,4.63402 "/>
   <path id="_42373168" class="fil0 str0" d="M6.58935 4.63402c0,0.0326063 0.0264331,0.0590551 0.0590551,0.0590551"/>
   <line id="_42372376" class="fil0 str0" x1="6.64841" y1="4.69307" x2="6.76652" y2= "4.69307" />
   <path id="_42371400" class="fil0 str0" d="M6.76652 4.69307c0.0326181,0 0.0590551,-0.0264488 0.0590551,-0.0590551"/>
   <polyline id="_42370312" class="fil0 str0" points="6.82557,4.63402 6.82557,4.57496 7.02635,4.57496 7.02635,4.37814 6.95352,4.37814 6.95352,4.26003 7.02635,4.26003 7.02635,4.16159 7.13659,4.16159 7.13659,4.26003 7.20943,4.26003 7.20943,4.37814 7.13659,4.37814 7.13659,4.57496 7.33737,4.57496 7.33737,4.63402 "/>
   <path id="_42369336" class="fil0 str0" d="M7.33737 4.63402c0,0.0326063 0.026437,0.0590551 0.0590551,0.0590551"/>
   <line id="_42368512" class="fil0 str0" x1="7.39643" y1="4.69307" x2="7.51454" y2= "4.69307" />
   <path id="_42367360" class="fil0 str0" d="M7.51454 4.69307c0.0326181,0 0.0590551,-0.0264488 0.0590551,-0.0590551"/>
   <polyline id="_42366232" class="fil0 str0" points="7.57359,4.63402 7.57359,4.57496 7.73108,4.57496 "/>
   <path id="_42365256" class="fil0 str0" d="M7.73108 4.57496c0.0326181,0 0.0590512,-0.0264488 0.0590512,-0.0590551"/>
   <line id="_42364160" class="fil0 str0" x1="7.79013" y1="4.51591" x2="7.79013" y2= "3.94898" />
   <path id="_42363184" class="fil0 str0" d="M7.79013 3.94898c0,-0.032622 -0.0264331,-0.0590551 -0.0590512,-0.0590551"/>
   <polyline id="_42362208" class="fil0 str0" points="7.73108,3.88993 7.67202,3.88993 7.67202,3.20488 7.73108,3.20488 "/>
   <path id="_42361232" class="fil0 str0" d="M7.73108 3.20488c0.0326181,0 0.0590512,-0.0264331 0.0590512,-0.0590551"/>
   <line id="_42360408" class="fil0 str0" x1="7.79013" y1="3.14583" x2="7.79013" y2= "2.5789" />
   <path id="_42359432" class="fil0 str0" d="M7.79013 2.5789c0,-0.032622 -0.0264331,-0.0590551 -0.0590512,-0.0590551"/>
   <polyline id="_42358456" class="fil0 str0" points="7.73108,2.51984 7.67202,2.51984 7.67202,1.83481 7.73108,1.83481 "/>
   <path id="_42357480" class="fil0 str0" d="M7.73108 1.83481c0.0326181,0 0.0590512,-0.026437 0.0590512,-0.0590551"/>
   <line id="_42356688" class="fil0 str0" x1="7.79013" y1="1.77576" x2="7.79013" y2= "1.20883" />
   <path id="_42355536" class="fil0 str0" d="M7.79013 1.20883c0,-0.032622 -0.0264331,-0.0590551 -0.0590512,-0.0590551"/>
   <polyline id="_42354272" class="fil0 str0" points="7.73108,1.14978 7.57359,1.14976 7.57359,1.09071 "/>
   <path id="_42353296" class="fil0 str0" d="M7.57359 1.09071c0,-0.032622 -0.026437,-0.0590591 -0.0590551,-0.0590591"/>
   <line id="_42352504" class="fil0 str0" x1="7.51454" y1="1.03165" x2="7.39643" y2= "1.03165" />
   <path id="_42351528" class="fil0 str0" d="M7.39643 1.03165c-0.0326181,0 -0.0590551,0.026437 -0.0590551,0.0590591"/>
   <polyline id="_42350440" class="fil0 str0" points="7.33737,1.09071 7.33737,1.14976 7.13659,1.14976 7.13659,1.3466 7.20943,1.3466 7.20943,1.4647 7.13659,1.4647 7.13659,1.56315 7.02635,1.56315 7.02635,1.4647 6.95352,1.4647 6.95352,1.3466 7.02635,1.3466 7.02635,1.14976 6.82557,1.14976 6.82557,1.09071 "/>
   <path id="_42349464" class="fil0 str0" d="M6.82557 1.09071c0,-0.032622 -0.026437,-0.0590591 -0.0590551,-0.0590591"/>
   <g>
    <path id="_42348488" class="fil0 str0" d="M10.1917 2.46079c0,0.0326181 -0.0264213,0.0590551 -0.0590551,0.0590551"/>
    <polyline id="_42347512" class="fil0 str0" points="10.1326,2.51984 10.0736,2.51984 10.0736,3.20488 10.1326,3.20488 "/>
    <path id="_42346536" class="fil0 str0" d="M10.1326 3.20488c0.0326339,0 0.0590551,0.026437 0.0590551,0.0590551"/>
    <line id="_42345744" class="fil0 str0" x1="10.1917" y1="3.26394" x2="10.1917" y2= "3.83087" />
    <path id="_42344456" class="fil0 str0" d="M10.1917 3.83087c0,0.0326063 -0.0264213,0.0590551 -0.0590551,0.0590551"/>
    <polyline id="_42343664" class="fil0 str0" points="10.1326,3.88993 10.0736,3.88993 10.0736,4.51591 "/>
    <path id="_42342512" class="fil0 str0" d="M10.0736 4.51591c0,0.0326063 -0.0264252,0.0590551 -0.0590591,0.0590551"/>
    <polyline id="_42341384" class="fil0 str0" points="10.0145,4.57496 9.97516,4.57496 9.97516,4.63402 "/>
    <path id="_42340408" class="fil0 str0" d="M9.97516 4.63402c0,0.0326063 -0.0264488,0.0590551 -0.0590551,0.0590551"/>
    <line id="_42339616" class="fil0 str0" x1="9.91611" y1="4.69307" x2="9.798" y2= "4.69307" />
    <path id="_42338640" class="fil0 str0" d="M9.798 4.69307c-0.0326339,0 -0.0590551,-0.0264488 -0.0590551,-0.0590551"/>
    <polyline id="_42337664" class="fil0 str0" points="9.73894,4.63402 9.73894,4.57496 8.08934,4.57496 8.08934,4.63402 "/>
    <path id="_42336688" class="fil0 str0" d="M8.08934 4.63402c0,0.0326063 -0.0264488,0.0590551 -0.0590551,0.0590551"/>
    <line id="_42335864" class="fil0 str0" x1="8.03028" y1="4.69307" x2="8.02632" y2= "4.69307" />
    <path id="_42334576" class="fil0 str0" d="M8.02632 4.69307c-0.0326063,0 -0.0590551,-0.0264488 -0.0590551,-0.0590551"/>
    <polyline id="_42333784" class="fil0 str0" points="7.96727,4.63402 7.96727,4.57496 7.92791,4.57496 "/>
    <path id="_42332632" class="fil0 str0" d="M7.92791 4.57496c-0.0326063,0 -0.0590551,-0.0264488 -0.0590551,-0.0590551"/>
    <polyline id="_42331472" class="fil0 str0" points="7.86885,4.51591 7.86885,3.88993 7.8098,3.88993 "/>
    <path id="_42330496" class="fil0 str0" d="M7.8098 3.88993c-0.0326063,0 -0.0590354,-0.0264488 -0.0590354,-0.0590551"/>
    <line id="_42329704" class="fil0 str0" x1="7.75076" y1="3.83087" x2="7.75076" y2= "3.26394" />
    <path id="_42328728" class="fil0 str0" d="M7.75076 3.26394c0,-0.0326181 0.0264291,-0.0590551 0.0590354,-0.0590551"/>
    <polyline id="_42327720" class="fil0 str0" points="7.8098,3.20488 7.86885,3.20488 7.86885,2.51984 7.8098,2.51984 "/>
    <path id="_42326744" class="fil0 str0" d="M7.8098 2.51984c-0.0326063,0 -0.0590354,-0.026437 -0.0590354,-0.0590551"/>
    <line id="_42131800" class="fil0 str0" x1="7.75076" y1="2.46079" x2="7.75076" y2= "1.89387" />
    <path id="_42324560" class="fil0 str0" d="M7.75076 1.89387c0,-0.032622 0.0264291,-0.0590551 0.0590354,-0.0590551"/>
    <polyline id="_42323736" class="fil0 str0" points="7.8098,1.83481 7.86885,1.83481 7.86885,1.20882 "/>
    <path id="_42322584" class="fil0 str0" d="M7.86885 1.20882c0,-0.0326181 0.0264488,-0.0590551 0.0590551,-0.0590551"/>
    <polyline id="_42321456" class="fil0 str0" points="7.92791,1.14976 7.9673,1.14976 7.9673,1.09071 "/>
    <path id="_42320480" class="fil0 str0" d="M7.9673 1.09071c0,-0.032622 0.0264449,-0.0590591 0.0590551,-0.0590591"/>
    <line id="_42319656" class="fil0 str0" x1="8.02635" y1="1.03165" x2="8.14446" y2= "1.03165" />
    <path id="_42318680" class="fil0 str0" d="M8.14446 1.03165c0.0326063,0 0.0590551,0.026437 0.0590551,0.0590591"/>
    <polyline id="_42317704" class="fil0 str0" points="8.20352,1.09071 8.20352,1.14976 9.73894,1.14976 9.73894,1.09071 "/>
    <path id="_42316728" class="fil0 str0" d="M9.73894 1.09071c0,-0.032622 0.0264213,-0.0590591 0.0590551,-0.0590591"/>
    <line id="_42315936" class="fil0 str0" x1="9.798" y1="1.03165" x2="9.91611" y2= "1.03165" />
    <path id="_42314648" class="fil0 str0" d="M9.91611 1.03165c0.0326063,0 0.0590551,0.026437 0.0590551,0.0590591"/>
    <polyline id="_42313856" class="fil0 str0" points="9.97516,1.09071 9.97516,1.14976 10.0145,1.14976 "/>
    <path id="_42312704" class="fil0 str0" d="M10.0145 1.14976c0.0326339,0 0.0590591,0.026437 0.0590591,0.0590551"/>
    <polyline id="_42311576" class="fil0 str0" points="10.0736,1.20882 10.0736,1.83481 10.1326,1.83481 "/>
    <path id="_42310600" class="fil0 str0" d="M10.1326 1.83481c0.0326339,0 0.0590551,0.0264331 0.0590551,0.0590551"/>
    <line id="_42309808" class="fil0 str0" x1="10.1917" y1="1.89387" x2="10.1917" y2= "2.46079" />
    <path id="_42308744" class="fil0 str1" d="M8.02242 3.94415c0.0326024,0 0.0590512,0.026437 0.0590512,0.0590551 0,0.0326063 -0.0264488,0.0590551 -0.0590512,0.0590551 -0.0326339,0 -0.0590591,-0.0264488 -0.0590591,-0.0590551 0,-0.0326181 0.0264252,-0.0590551 0.0590591,-0.0590551"/>
    <path id="_42307680" class="fil0 str1" d="M9.92004 3.94415c0.0326063,0 0.0590551,0.026437 0.0590551,0.0590551 0,0.0326063 -0.0264488,0.0590551 -0.0590551,0.0590551 -0.0326063,0 -0.0590551,-0.0264488 -0.0590551,-0.0590551 0,-0.0326181 0.0264488,-0.0590551 0.0590551,-0.0590551"/>
    <path id="_42306616" class="fil0 str1" d="M8.14839 1.34376c0.0326063,0 0.0590551,0.0264488 0.0590551,0.0590551 0,0.0326024 -0.0264488,0.0590512 -0.0590551,0.0590512 -0.0326102,0 -0.0590551,-0.0264488 -0.0590551,-0.0590512 0,-0.0326063 0.0264449,-0.0590551 0.0590551,-0.0590551"/>
    <path id="_42305552" class="fil0 str1" d="M9.79406 1.34376c0.0326063,0 0.0590551,0.0264488 0.0590551,0.0590551 0,0.0326024 -0.0264488,0.0590512 -0.0590551,0.0590512 -0.0326063,0 -0.0590551,-0.0264488 -0.0590551,-0.0590512 0,-0.0326063 0.0264488,-0.0590551 0.0590551,-0.0590551"/>
   </g>
   <g>
    <path id="_42303712" class="fil0 str0" d="M6.41219 2.46079c0,0.0326181 -0.026437,0.0590551 -0.0590551,0.0590551"/>
    <polyline id="_42302736" class="fil0 str0" points="6.35313,2.51984 6.29407,2.51984 6.29407,3.20488 6.35313,3.20488 "/>
    <path id="_42301760" class="fil0 str0" d="M6.35313 3.20488c0.0326181,0 0.0590551,0.026437 0.0590551,0.0590551"/>
    <line id="_42300968" class="fil0 str0" x1="6.41219" y1="3.26394" x2="6.41219" y2= "3.83087" />
    <path id="_42299816" class="fil0 str0" d="M6.41219 3.83087c0,0.0326063 -0.026437,0.0590551 -0.0590551,0.0590551"/>
    <polyline id="_42298992" class="fil0 str0" points="6.35313,3.88993 6.29407,3.88993 6.29407,4.51591 "/>
    <path id="_42297840" class="fil0 str0" d="M6.29407 4.51591c0,0.0326063 -0.026437,0.0590551 -0.0590551,0.0590551"/>
    <polyline id="_42296712" class="fil0 str0" points="6.23502,4.57496 6.19565,4.57496 6.19565,4.63402 "/>
    <path id="_42295736" class="fil0 str0" d="M6.19565 4.63402c0,0.0326063 -0.026437,0.0590551 -0.0590551,0.0590551"/>
    <line id="_42294912" class="fil0 str0" x1="6.13659" y1="4.69307" x2="6.01848" y2= "4.69307" />
    <path id="_42293800" class="fil0 str0" d="M6.01848 4.69307c-0.032622,0 -0.0590551,-0.0264488 -0.0590551,-0.0590551"/>
    <polyline id="_42292824" class="fil0 str0" points="5.95943,4.63402 5.95943,4.57496 4.42398,4.57496 4.42398,4.63402 "/>
    <path id="_42291848" class="fil0 str0" d="M4.42398 4.63402c0,0.0326063 -0.0264409,0.0590551 -0.0590551,0.0590551"/>
    <line id="_42291024" class="fil0 str0" x1="4.36493" y1="4.69307" x2="4.24682" y2= "4.69307" />
    <path id="_42289872" class="fil0 str0" d="M4.24682 4.69307c-0.0326142,0 -0.0590551,-0.0264488 -0.0590551,-0.0590551"/>
    <polyline id="_42289080" class="fil0 str0" points="4.18776,4.63402 4.18776,4.57496 4.1484,4.57496 "/>
    <path id="_42287928" class="fil0 str0" d="M4.1484 4.57496c-0.0326142,0 -0.0590551,-0.0264488 -0.0590551,-0.0590551"/>
    <polyline id="_42286800" class="fil0 str0" points="4.08935,4.51591 4.08935,3.88993 4.03029,3.88993 "/>
    <path id="_42285824" class="fil0 str0" d="M4.03029 3.88993c-0.0326102,0 -0.0590551,-0.0264488 -0.0590551,-0.0590551"/>
    <line id="_42285032" class="fil0 str0" x1="3.97124" y1="3.83087" x2="3.97124" y2= "3.26394" />
    <path id="_42283920" class="fil0 str0" d="M3.97124 3.26394c0,-0.0326181 0.0264449,-0.0590551 0.0590551,-0.0590551"/>
    <polyline id="_42282944" class="fil0 str0" points="4.03029,3.20488 4.08935,3.20488 4.08935,2.51984 4.03029,2.51984 "/>
    <path id="_42281968" class="fil0 str0" d="M4.03029 2.51984c-0.0326102,0 -0.0590551,-0.026437 -0.0590551,-0.0590551"/>
    <line id="_42281176" class="fil0 str0" x1="3.97124" y1="2.46079" x2="3.97124" y2= "1.89387" />
    <path id="_42280024" class="fil0 str0" d="M3.97124 1.89387c0,-0.032622 0.0264449,-0.0590551 0.0590551,-0.0590551"/>
    <polyline id="_42279232" class="fil0 str0" points="4.03029,1.83481 4.08935,1.83481 4.08935,1.20882 "/>
    <path id="_42278080" class="fil0 str0" d="M4.08935 1.20882c0,-0.0326181 0.0264409,-0.0590551 0.0590551,-0.0590551"/>
    <polyline id="_42276952" class="fil0 str0" points="4.1484,1.14976 4.18778,1.14976 4.18778,1.09071 "/>
    <path id="_42275976" class="fil0 str0" d="M4.18778 1.09071c0,-0.032622 0.0264409,-0.0590591 0.0590512,-0.0590591"/>
    <line id="_42275184" class="fil0 str0" x1="4.24683" y1="1.03165" x2="4.36494" y2= "1.03165" />
    <path id="_42274072" class="fil0 str0" d="M4.36494 1.03165c0.0326142,0 0.0590551,0.026437 0.0590551,0.0590591"/>
    <polyline id="_42273096" class="fil0 str0" points="4.424,1.09071 4.424,1.14976 5.95943,1.14976 5.95943,1.09071 "/>
    <path id="_42272120" class="fil0 str0" d="M5.95943 1.09071c0,-0.032622 0.0264331,-0.0590591 0.0590551,-0.0590591"/>
    <line id="_42271328" class="fil0 str0" x1="6.01848" y1="1.03165" x2="6.13659" y2= "1.03165" />
    <path id="_42270144" class="fil0 str0" d="M6.13659 1.03165c0.0326181,0 0.0590551,0.026437 0.0590551,0.0590591"/>
    <polyline id="_42269352" class="fil0 str0" points="6.19565,1.09071 6.19565,1.14976 6.23502,1.14976 "/>
    <path id="_42268384" class="fil0 str0" d="M6.23502 1.14976c0.0326181,0 0.0590551,0.026437 0.0590551,0.0590551"/>
    <polyline id="_42267256" class="fil0 str0" points="6.29407,1.20882 6.29407,1.83481 6.35313,1.83481 "/>
    <path id="_42266432" class="fil0 str0" d="M6.35313 1.83481c0.0326181,0 0.0590551,0.0264331 0.0590551,0.0590551"/>
    <line id="_42265472" class="fil0 str0" x1="6.41219" y1="1.89387" x2="6.41219" y2= "2.46079" />
    <path id="_42264544" class="fil0 str0" d="M4.64053 4.3781c0.0434921,0 0.0787441,0.0352638 0.0787441,0.078748 0,0.0434843 -0.035252,0.078748 -0.0787441,0.078748 -0.0434882,0 -0.0787402,-0.0352638 -0.0787402,-0.078748 0,-0.0434843 0.035252,-0.078748 0.0787402,-0.078748"/>
   </g>
  </g>
 </g>
</svg>
